<svg width="32" height="34" viewBox="0 0 32 34" fill="none" xmlns="http://www.w3.org/2000/svg">
<path d="M19.3591 26.2091C20.5921 23.4338 22.2438 20.8642 24.2566 18.5901C24.6232 17.9879 25.1579 17.5061 25.7949 17.2039C26.5148 16.8545 27.3311 16.7567 28.1132 16.9262C28.1191 16.9248 28.1253 16.9248 28.1313 16.9262C28.252 16.954 28.3728 16.9854 28.4863 17.0204L28.531 17.0349C29.0442 17.2084 29.5121 17.4944 29.9005 17.8721C30.2889 18.2497 30.588 18.7094 30.7758 19.2176C30.9637 19.7257 31.0356 20.2694 30.9862 20.8089C30.9369 21.3484 30.7676 21.87 30.4907 22.3356C30.3516 22.5419 30.2021 22.741 30.0427 22.9321C28.7985 24.4899 27.113 25.6358 25.2068 26.2199C23.3006 26.8039 21.2625 26.7989 19.3591 26.2055V26.2091Z" fill="#1A8A9E"/>
<path d="M7.63351 1.88011C8.30606 0.660581 9.56544 0.0689307 10.8695 0.0942873C11.4732 0.198129 12.0649 0.274197 12.6203 0.485502C14.1905 1.07778 15.5845 2.05947 16.6712 3.33836C17.7579 4.61725 18.5016 6.15138 18.8327 7.79665C13.6297 8.67447 9.76829 7.141 9.58476 7.06493C9.58163 7.06382 9.57822 7.06382 9.5751 7.06493C9.39593 6.99826 9.22231 6.91751 9.05589 6.82344C8.34925 6.43919 7.79282 5.82789 7.47654 5.08832C7.3739 4.74782 7.28334 4.40732 7.20365 4.05716C7.20276 4.05506 7.20229 4.05279 7.20229 4.05051C7.20229 4.04823 7.20276 4.04597 7.20365 4.04387C7.11849 3.29547 7.26874 2.53913 7.63351 1.88011Z" fill="#1A8A9E"/>
<path d="M4.98439 17.1569C8.74803 21.4796 8.95813 26.1753 8.95813 26.1753C8.98952 26.3637 9.10423 28.7303 7.22663 29.8714C6.42798 30.3427 5.47965 30.4919 4.57487 30.2884C3.67008 30.0849 2.87692 29.5441 2.35696 28.7762C2.35696 28.7762 2.35696 28.7678 2.3473 28.7629C0.136453 26.5509 2.84115 18.968 4.98439 17.1569Z" fill="#1A8A9E"/>
<path d="M1.80273 28.0964C2.13655 28.5898 2.58632 28.9938 3.11261 29.2729C3.6389 29.5521 4.22564 29.6979 4.82137 29.6975C8.16723 29.6975 9.84922 25.9616 10.6739 24.544C10.6872 24.5223 10.3032 24.3545 10.3117 24.3315C11.2776 22.6773 12.1543 21.1921 13.6129 19.9617C14.808 18.9455 16.14 18.1021 17.5697 17.4563C19.6682 16.5108 22.7557 16.1281 25.2093 16.1281C26.6161 16.1258 28.0175 16.3023 29.3798 16.6533C28.5972 16.4963 27.7849 16.5936 27.0615 16.931C23.0322 18.7422 22.1822 22.3803 20.6258 25.9374C20.5944 25.923 18.3388 33.9151 10.8128 33.9151C8.90987 33.9155 7.04735 33.3663 5.44902 32.3337C3.85069 31.301 2.58454 29.8288 1.80273 28.094V28.0964Z" fill="url(#paint0_linear_527_685)"/>
<path d="M31.6993 14.6211C30.6319 10.3105 28.2834 7.88716 23.3256 7.01416C22.2058 6.83706 21.0772 6.72177 19.9447 6.66883C18.9508 6.61248 17.9545 6.61651 16.9611 6.68091C10.6461 7.08661 9.95784 6.75335 9.78276 6.68091C9.78002 6.67999 9.77705 6.67999 9.77431 6.68091C9.592 6.62101 9.41734 6.53996 9.2539 6.43941C8.6876 6.07718 8.53908 5.95643 8.2348 5.24524C8.6067 6.48771 8.5584 7.12525 9.19111 8.22887C9.20439 8.25181 9.21767 8.27837 9.23095 8.3001C9.28408 8.39187 9.3517 8.47518 9.40241 8.56574C8.51372 8.41723 7.91483 8.76618 9.7888 11.1207C12.0105 13.9136 18.171 15.697 18.171 15.697L18.1359 15.6644C19.9311 16.3077 21.8232 16.6385 23.7301 16.6424C25.1373 16.6395 26.5392 16.816 27.9018 17.1677C27.9078 17.1664 27.914 17.1664 27.92 17.1677C28.0407 17.1942 28.1614 17.2256 28.2737 17.2618L28.3184 17.2751C28.8309 17.4492 29.298 17.7355 29.6858 18.1131C30.0736 18.4907 30.3722 18.9501 30.5598 19.4577C30.7475 19.9654 30.8195 20.5085 30.7705 21.0476C30.7216 21.5866 30.5529 22.1079 30.2769 22.5734C31.0693 21.4191 31.6046 20.108 31.8466 18.7289C31.9479 18.1593 31.9992 17.582 31.9999 17.0034C31.9991 16.1999 31.8981 15.3997 31.6993 14.6211Z" fill="url(#paint1_linear_527_685)"/>
<path d="M11.9116 15.3928C11.8466 14.7841 11.7482 14.1795 11.6169 13.5816C11.5952 13.4971 11.5493 13.3256 11.4841 13.0901C11.3501 12.5577 11.1943 12.036 11.012 11.5205C10.9697 11.3925 10.9287 11.2633 10.8828 11.1256C10.3853 9.6332 8.2264 5.22839 8.2264 5.22839C8.08196 4.90102 7.98948 4.55311 7.9523 4.19723C7.95062 4.19296 7.95062 4.18822 7.9523 4.18395C7.87037 3.43705 8.02225 2.68314 8.38699 2.02623C9.05954 0.806696 10.0086 0.123272 11.309 0.151044C10.8428 0.0479173 10.3665 -0.00270846 9.88906 0.000111619C7.26667 0.0033087 4.75266 1.04672 2.89869 2.90137C1.04472 4.75602 0.00223668 7.27041 0 9.8928C0 12.9428 0.882651 14.5826 3.42555 17.6205C4.22851 18.5696 9.11508 23.5612 8.23002 26.895C7.67459 28.9839 6.78952 29.165 6.56856 29.3099C7.91849 28.9573 11.1569 27.1039 11.8307 19.5838C11.9019 18.7881 12.0057 17.9828 12.0057 17.1617C12.0055 16.5708 11.9741 15.9803 11.9116 15.3928Z" fill="url(#paint2_linear_527_685)"/>
<defs>
<linearGradient id="paint0_linear_527_685" x1="23.5454" y1="16.0689" x2="7.78807" y2="30.1358" gradientUnits="userSpaceOnUse">
<stop stop-color="#51B0CB"/>
<stop offset="1" stop-color="#ABE8E9"/>
</linearGradient>
<linearGradient id="paint1_linear_527_685" x1="8.21063" y1="6.10736" x2="30.9712" y2="17.8801" gradientUnits="userSpaceOnUse">
<stop stop-color="#51B0CB"/>
<stop offset="1" stop-color="#ABE8E9"/>
</linearGradient>
<linearGradient id="paint2_linear_527_685" x1="6.00287" y1="0" x2="6.00287" y2="29.3099" gradientUnits="userSpaceOnUse">
<stop stop-color="#ABE8E9"/>
<stop offset="1" stop-color="#51B0CB"/>
</linearGradient>
</defs>
</svg>
